<svg xmlns="http://www.w3.org/2000/svg" xmlns:xlink="http://www.w3.org/1999/xlink" preserveAspectRatio="xMidYMid meet" version="1.0" viewBox="150.6 150.6 778.8 778.8" zoomAndPan="magnify" style="fill: rgb(0, 0, 0);" original_string_length="1294" width="214.78252320221029px" height="214.78252320221029px"><g><g><g id="__id11_s4gdzupezl" style="fill: rgb(122, 43, 225);"><path d="M357.03 616.32L356.32 617.02 150.59 617.02 150.59 693.24 280.1 693.24 211.32 762.03 265.21 815.93 410.93 670.21z" style="fill: inherit;"/><path d="M464.58 724.34L319.1 869.82 373.01 923.71 464.58 832.13 464.58 929.41 540.8 929.41 540.8 723.34 464.58 723.34z" style="fill: inherit;"/><path d="M356.66 464.58L355.65 464.58 210.17 319.1 156.28 373.01 247.87 464.58 150.59 464.58 150.59 540.8 356.66 540.8z" style="fill: inherit;"/><path d="M463.68 357.03L462.96 356.31 462.96 150.59 386.74 150.59 386.74 280.1 317.96 211.32 264.07 265.21 409.79 410.93z" style="fill: inherit;"/><path d="M799.9 386.74L868.68 317.96 814.79 264.07 669.07 409.79 722.96 463.68 723.68 462.96 929.41 462.96 929.41 386.74z" style="fill: inherit;"/><path d="M723.34 615.4L724.32 615.4 869.82 760.88 923.72 706.99 832.13 615.4 929.41 615.4 929.41 539.18 723.34 539.18z" style="fill: inherit;"/><path d="M706.99 156.28L615.4 247.87 615.4 150.59 539.18 150.59 539.18 356.66 615.4 356.66 615.4 355.66 760.88 210.17z" style="fill: inherit;"/><path d="M616.32 722.96L617.02 723.66 617.02 929.41 693.24 929.41 693.24 799.9 762.03 868.68 815.93 814.79 670.21 669.07z" style="fill: inherit;"/></g></g></g></svg>